<?xml version="1.0" encoding="UTF-8" standalone="no"?>

<svg
   xmlns:dc="http://purl.org/dc/elements/1.1/"
   xmlns:cc="http://creativecommons.org/ns#"
   xmlns:rdf="http://www.w3.org/1999/02/22-rdf-syntax-ns#"
   xmlns:svg="http://www.w3.org/2000/svg"
   xmlns="http://www.w3.org/2000/svg"
   xmlns:sodipodi="http://sodipodi.sourceforge.net/DTD/sodipodi-0.dtd"
   xmlns:inkscape="http://www.inkscape.org/namespaces/inkscape"
   width="48px"
   height="48px"
   viewBox="0 0 4800 4800"
   version="1.1"
   id="svg16"
   inkscape:version="0.92.1 r15371"
   sodipodi:docname="device-floater.svg"
   inkscape:export-xdpi="90"
   inkscape:export-ydpi="90">

  <metadata
     id="metadata888">
    <rdf:RDF>
      <cc:Work
         rdf:about="">
        <dc:format>image/svg+xml</dc:format>
        <dc:type
           rdf:resource="http://purl.org/dc/dcmitype/StillImage" />
        <cc:license
           rdf:resource="http://creativecommons.org/licenses/GPL/2.0/" />
        <dc:title />
      </cc:Work>
      <cc:License
         rdf:about="http://creativecommons.org/licenses/GPL/2.0/">
        <cc:permits
           rdf:resource="http://web.resource.org/cc/Reproduction" />
        <cc:permits
           rdf:resource="http://web.resource.org/cc/Distribution" />
        <cc:requires
           rdf:resource="http://web.resource.org/cc/Notice" />
        <cc:permits
           rdf:resource="http://web.resource.org/cc/DerivativeWorks" />
        <cc:requires
           rdf:resource="http://web.resource.org/cc/ShareAlike" />
        <cc:requires
           rdf:resource="http://web.resource.org/cc/SourceCode" />
      </cc:License>
    </rdf:RDF>
  </metadata>

  <defs>
    <radialGradient id="RadialGradient" gradientUnits="userSpaceOnUse"
                      cx="2400" cy="2400" r="3400" fx="2400" fy="2400">
      <stop offset="0" stop-color="white" stop-opacity="1" />
      <stop offset="0.60" stop-color="white" stop-opacity="0.9" />
      <stop offset="0.70" stop-color="white" stop-opacity="0.8" />
      <stop offset="1" stop-color="white" stop-opacity="0" />
    </radialGradient>
    <mask id="RadialMask" maskUnits="userSpaceOnUse"
          x="0" y="0" width="4800" height="4800">
      <rect x="0" y="0" width="4800" height="4800" fill="url(#RadialGradient)"/>
    </mask>
  </defs>
  <g
     inkscape:label="Layer 1"
     inkscape:groupmode="layer"
     id="layer1"
     transform="translate(0,0)"
     style="display:inline">
    
  </g>
  <g
     inkscape:label="Layer 2"
     inkscape:groupmode="layer"
     id="layer2"
     transform="translate(0,0)"
     style="display:inline"
     mask="url(#RadialMask)"
     description="mask=url(#RadialMask)">
    <g
       style="display:inline"
       transform="translate(0,0)"
       id="groupBackColor">
      <rect x="0" y="0" width="4800" height="4800" style="fill:#88AAFF"/>
      <path
         d="M 0,3800 300,3800
            a 500,500 0  0,0 500,-480
              500,500 0  1,0 1000,0
              500,500 0  1,0 1000,0
              500,500 0  1,0 1000,0
              500,500 0  0,0 500,+480
            M 4800,3800 4800,4800 0,4800 0,3800 Z"
         id="WavesBackg1"
         style="fill:#0000dd;fill-opacity:1;stroke:none"/>
      <path
         d="M 0,4450 600,4450
            a 500,500 0  0,0 500,-480
              500,500 0  1,0 1000,0
              500,500 0  1,0 1000,0
              500,500 0  1,0 1000,0
              500,500 0  0,0 500,+480
            M 4800,4450 4800,4800 0,4800 0,4450 Z"
         id="WavesBackg2"
         style="fill:#0000aa;fill-opacity:1;stroke:none" />
    </g>
    <g
       style="display:inline"
       transform="translate(0,0)"
       id="groupWaves">
      <path
         d="m 0,3800 L 300,3800
            a 500,500 0  0,0 500,-480
              500,500 0  1,0 1000,0
              500,500 0  1,0 1000,0
              500,500 0  1,0 1000,0
              500,500 0  0,0 500,+480
            L 4800,3800"
         id="Waves1"
         style="fill:none;fill-opacity:1;stroke:#0000bd;stroke-width:150;
                  stroke-linecap:round;stroke-miterlimit:4;stroke-dasharray:none" />
      <path
         d="m 0,4450 L 600,4450
            a 500,500 0  0,0 500,-480
              500,500 0  1,0 1000,0
              500,500 0  1,0 1000,0
              500,500 0  1,0 1000,0
              500,500 0  0,0 500,+480
            L 4800,4450"
         id="Waves2"
         style="fill:none;fill-opacity:1;stroke:#00008a;stroke-width:150;
                  stroke-linecap:round;stroke-miterlimit:4;stroke-dasharray:none" />
    </g>
  </g>
  <g
     inkscape:label="Layer 3"
     inkscape:groupmode="layer"
     id="layer3"
     transform="translate(0,0)"
     style="display:inline">
    <clipPath id="WaveClip">
      <path desc="Since stroke width of waves is 150 y is -75"
         d="M 0,0 L 0,3725   L 300,3725
            a 500,500 0  0,0 500,-480
              500,500 0  1,0 1000,0
              500,500 0  1,0 1000,0
              500,500 0  1,0 1000,0
              500,500 0  0,0 500,+480
            L 4800,3725 L 4800,0 z
            "/>
    </clipPath>
    <g
       style="display:inline"
       transform="translate(0,0)"
       id="groupKeyboard"
       clip-path="url(#WaveClip)">
      <g
         style="display:inline"
         transform="translate(500,-200) rotate(+16)"
         id="groupMaskedKeyboard">
        <g
           style="display:inline"
           transform="translate(0,+200)"
           id="groupCord">
          <circle cx="1500" cy="1200" r="200"
             id="Attachment"
             style="fill:#000000;fill-opacity:1;stroke:#000000;
                    stroke-width:000;stroke-miterlimit:4;stroke-dasharray:none"/>
          <path
             d="M 1500,1200
                C 1400,1400 1000,1300 1050,900
                S 900,800  500,900"
             id="Cord"
             style="fill:none;fill-opacity:1;stroke:#000000;stroke-width:100;
                    stroke-linecap:round;stroke-miterlimit:4;stroke-dasharray:none" />
        </g>
        <rect
           x="1500"
           y="300"
           width="2000"
           height="3800"
           id="rectKeyboard"
           style="fill:#ffffff;fill-opacity:1;stroke:#000000;stroke-linejoin:round;
                  stroke-width:200;stroke-miterlimit:4;stroke-dasharray:none"/>
        <rect
           x="1700"
           y="500"
           width="300"
           height="400"
           style="fill:#000000;fill-opacity:1;stroke:#000000;
                  stroke-width:000;stroke-miterlimit:4;stroke-dasharray:none"/>
        <rect
           x="1700"
           y="1100"
           width="300"
           height="400"
           style="fill:#000000;fill-opacity:1;stroke:#000000;
                  stroke-width:000;stroke-miterlimit:4;stroke-dasharray:none"/>
        <rect
           x="1700"
           y="1701"
           width="300"
           height="400"
           style="fill:#000000;fill-opacity:1;stroke:#000000;
                  stroke-width:000;stroke-miterlimit:4;stroke-dasharray:none"/>
        <rect
           x="1700"
           y="2300"
           width="300"
           height="400"
           style="fill:#000000;fill-opacity:1;stroke:#000000;
                  stroke-width:000;stroke-miterlimit:4;stroke-dasharray:none"/>
        <rect
           x="1700"
           y="2900"
           width="300"
           height="400"
           style="fill:#000000;fill-opacity:1;stroke:#000000;
                  stroke-width:000;stroke-miterlimit:4;stroke-dasharray:none"/>
        <rect
           x="1700"
           y="3500"
           width="300"
           height="400"
           style="fill:#000000;fill-opacity:1;stroke:#000000;
                  stroke-width:000;stroke-miterlimit:4;stroke-dasharray:none"/>
        <rect
           x="2200"
           y="500"
           width="300"
           height="400"
           style="fill:#000000;fill-opacity:1;stroke:#000000;
                  stroke-width:000;stroke-miterlimit:4;stroke-dasharray:none"/>
        <rect
           x="2200"
           y="1100"
           width="300"
           height="400"
           style="fill:#000000;fill-opacity:1;stroke:#000000;
                  stroke-width:000;stroke-miterlimit:4;stroke-dasharray:none"/>
        <rect
           x="2200"
           y="1701"
           width="300"
           height="400"
           style="fill:#000000;fill-opacity:1;stroke:#000000;
                  stroke-width:000;stroke-miterlimit:4;stroke-dasharray:none"/>
        <rect
           x="2200"
           y="2300"
           width="300"
           height="400"
           style="fill:#000000;fill-opacity:1;stroke:#000000;
                  stroke-width:000;stroke-miterlimit:4;stroke-dasharray:none"/>
        <rect
           x="2200"
           y="2900"
           width="300"
           height="400"
           style="fill:#000000;fill-opacity:1;stroke:#000000;
                  stroke-width:000;stroke-miterlimit:4;stroke-dasharray:none"/>
        <rect
           x="2700"
           y="500"
           width="300"
           height="400"
           style="fill:#000000;fill-opacity:1;stroke:#000000;
                  stroke-width:000;stroke-miterlimit:4;stroke-dasharray:none"/>
        <rect
           x="2700"
           y="1100"
           width="300"
           height="400"
           style="fill:#000000;fill-opacity:1;stroke:#000000;
                  stroke-width:000;stroke-miterlimit:4;stroke-dasharray:none"/>
        <rect
           x="2700"
           y="1701"
           width="300"
           height="1600"
           style="fill:#000000;fill-opacity:1;stroke:#000000;
                  stroke-width:000;stroke-miterlimit:4;stroke-dasharray:none"/>
      </g>
    </g>
  </g>
  <g
     inkscape:label="Layer 4"
     inkscape:groupmode="layer"
     id="layer4"
     transform="translate(0,0)"
     style="display:inline">
    <path
       d="m 800,3320
          a 500,500 0  1,0 1000,0
            500,500 0  1,0 1000,0
            500,500 0  1,0 1000,0"
       id="Waves1Over"
       style="fill:none;fill-opacity:1;stroke:#0000bd;stroke-width:150;
              stroke-linecap:round;stroke-miterlimit:4;stroke-dasharray:none" />
  </g>
</svg>
